<?xml version="1.0" encoding="UTF-8" standalone="no"?><!DOCTYPE svg PUBLIC "-//W3C//DTD SVG 1.1//EN" "http://www.w3.org/Graphics/SVG/1.1/DTD/svg11.dtd"><svg width="100%" height="100%" viewBox="0 0 1892 1663" version="1.1" xmlns="http://www.w3.org/2000/svg" xmlns:xlink="http://www.w3.org/1999/xlink" xml:space="preserve" xmlns:serif="http://www.serif.com/" style="fill-rule:evenodd;clip-rule:evenodd;stroke-linecap:round;stroke-miterlimit:2;"><g><path d="M1563.679,1090.579c-101.308,242.367 -340.862,413.117 -619.55,413.117c-278.688,0 -518.242,-170.746 -619.55,-413.117" style="fill:none;stroke:#0b97a1;stroke-width:17.61px;"/><path d="M1391.363,1130.363c-94.813,146.783 -259.867,244.142 -447.233,244.142c-187.367,0 -352.421,-97.358 -447.233,-244.137" style="fill:none;stroke:#0b97a1;stroke-width:17.61px;"/><path d="M1141.712,1190.15c-58.587,32.5 -125.958,51.042 -197.583,51.042c-71.625,0 -139,-18.542 -197.583,-51.042" style="fill:none;stroke:#abd037;stroke-width:17.61px;stroke-linecap:butt;"/><path d="M180.642,1135.312c120.508,303.663 416.917,518.383 763.488,518.383c346.571,0 642.975,-214.721 763.487,-518.383" style="fill:none;stroke:#0b97a1;stroke-width:17.61px;stroke-linecap:butt;"/><path d="M712.212,1266.4l94.542,-209.875c40,24.625 87.042,38.833 137.375,38.833c50.333,0 97.375,-14.208 137.375,-38.833l94.542,209.875" style="fill:none;stroke:#abd037;stroke-width:17.61px;stroke-linejoin:round;"/><path d="M988.512,1241.192c0,-24.513 -19.871,-44.383 -44.383,-44.383c-24.513,0 -44.383,19.871 -44.383,44.383c0,24.512 19.871,44.383 44.383,44.383c24.512,0 44.383,-19.871 44.383,-44.383Z" style="fill:#abd037;fill-rule:nonzero;"/><path d="M613.117,1125.158l71.263,-64.133c25.071,28.537 54.792,52.9 87.942,71.933" style="fill:none;stroke:#abd037;stroke-width:17.61px;stroke-linejoin:round;"/><path d="M1115.733,1133.067c33.846,-19.129 62.321,-42.737 87.854,-71.708l70.917,63.8" style="fill:none;stroke:#abd037;stroke-width:17.61px;stroke-linejoin:round;"/><path d="M1735.429,1115.421c0,-10.988 -8.908,-19.896 -19.896,-19.896c-10.987,0 -19.896,8.908 -19.896,19.896c0,10.987 8.908,19.892 19.896,19.892c10.987,0 19.896,-8.904 19.896,-19.892Z" style="fill:#abd037;fill-rule:nonzero;"/><path d="M191.937,1115.421c0,-10.988 -8.908,-19.896 -19.896,-19.896c-10.988,0 -19.892,8.908 -19.892,19.896c0,10.987 8.904,19.892 19.892,19.892c10.987,0 19.896,-8.904 19.896,-19.892Z" style="fill:#abd037;fill-rule:nonzero;"/><path d="M246.017,474.962c130.179,-252.75 393.821,-426.004 697.163,-426.004c210.637,0 407.467,80.067 554.229,225.446c59.775,59.217 108.7,126.871 145.783,200.558" style="fill:none;stroke:#abdce1;stroke-width:17.61px;"/><path d="M345.854,526.796c111.4,-216.729 337.333,-365.337 597.325,-365.337c180.788,-0 349.5,68.496 475.058,192.871c51.321,50.837 93.279,109.021 125.025,172.462" style="fill:none;stroke:#abd037;stroke-width:17.61px;"/><path d="M542.754,341.871c61.437,-50.225 132.442,-89.167 209.817,-113.625" style="fill:none;stroke:#abdce1;stroke-width:17.61px;"/><path d="M582.992,535.721c85.712,-103.817 215.358,-170.096 360.188,-170.096c126.621,0 244.304,47.504 331.375,133.75c10.925,10.829 21.242,22.15 30.925,33.925" style="fill:none;stroke:#abd037;stroke-width:17.61px;"/><path d="M1729.15,590.25c-102.104,-340.679 -415.337,-578.792 -785.971,-578.792c-369.138,-0 -681.363,243.592 -784.754,578.792" style="fill:none;stroke:#abd037;stroke-width:17.61px;"/><path d="M1428.971,617.983l-232.25,0c-6.083,-7.25 -12.5,-14.208 -19.25,-20.917c-61.167,-60.583 -144.5,-93.958 -234.625,-93.958c-99.792,0 -189.333,44.583 -249.75,114.875l-236.333,0" style="fill:none;stroke:#abd037;stroke-width:17.61px;"/><path d="M1316.596,488.813l72.529,-63.813c4.312,-3.792 10.3,2.538 6.229,6.629l-68.2,68.421c-7.521,7.237 -18.279,-4.142 -10.558,-11.237Z" style="fill:#0b97a1;fill-rule:nonzero;"/><path d="M1427.804,410.583c0,9.217 -7.471,16.688 -16.688,16.688c-9.217,0 -16.692,-7.471 -16.692,-16.688c0,-9.217 7.475,-16.688 16.692,-16.688c9.217,0 16.688,7.471 16.688,16.688Z" style="fill:#0b97a1;fill-rule:nonzero;"/><path d="M565.129,500.05l-68.204,-68.421c-4.05,-4.067 1.892,-10.438 6.233,-6.629l72.529,63.813c7.692,7.058 -2.996,18.5 -10.558,11.237Z" style="fill:#0b97a1;fill-rule:nonzero;"/><path d="M464.479,410.583c0,9.217 7.471,16.688 16.688,16.688c9.217,0 16.692,-7.471 16.692,-16.688c0,-9.217 -7.475,-16.688 -16.692,-16.688c-9.217,0 -16.688,7.471 -16.688,16.688Z" style="fill:#0b97a1;fill-rule:nonzero;"/><path d="M86.075,720.346l-67.1,0l-0,191.95l67.1,0c20.075,0 37.95,-3.85 53.35,-11.825c15.125,-7.975 26.95,-18.975 35.475,-33.55c8.25,-14.3 12.375,-31.075 12.375,-50.325c0,-19.25 -4.125,-36.3 -12.375,-50.875c-8.525,-14.575 -20.35,-25.575 -35.475,-33.55c-15.4,-7.975 -33.275,-11.825 -53.35,-11.825Zm-1.375,159.225l-27.225,0l0,-126.775l27.225,0c20.075,0 35.75,5.5 46.75,16.775c11,11.275 16.5,26.95 16.5,47.025c0,20.075 -5.5,35.475 -16.5,46.475c-11,11 -26.675,16.5 -46.75,16.5Z" style="fill:#abd037;fill-rule:nonzero;"/><path d="M358.596,751.421l0,-31.35l-111.375,0l0,192.225l111.375,0l0,-31.35l-72.875,0l0,-50.875l64.625,0l0,-30.525l-64.625,0l0,-48.125l72.875,0Z" style="fill:#abd037;fill-rule:nonzero;"/><path d="M535.971,751.421l0,-31.35l-111.375,0l0,192.225l111.375,0l0,-31.35l-72.875,0l0,-50.875l64.625,0l0,-30.525l-64.625,0l0,-48.125l72.875,0Z" style="fill:#abd037;fill-rule:nonzero;"/><path d="M741.946,779.746c0,-11.275 -2.475,-21.45 -7.7,-30.525c-5.225,-9.075 -13.2,-15.95 -23.65,-21.175c-10.45,-5.225 -23.1,-7.7 -37.95,-7.7l-70.675,0l0,191.95l38.5,0l0,-73.7l32.175,0c15.675,0 28.875,-2.75 39.325,-8.25c10.175,-5.5 17.875,-12.65 22.825,-21.725c4.675,-9.075 7.15,-18.7 7.15,-28.875Zm-70.95,27.775l-30.525,0l0,-55.825l30.525,0c20.9,0 31.35,9.35 31.35,28.05c0,8.8 -2.475,15.675 -7.7,20.35c-5.225,4.95 -12.925,7.425 -23.65,7.425Z" style="fill:#abd037;fill-rule:nonzero;"/><path d="M887.417,816.046c0,18.975 4.4,35.75 12.925,50.6c8.525,14.85 20.075,26.4 34.925,34.65c14.575,8.525 31.075,12.65 49.5,12.65c21.725,0 40.425,-5.5 56.65,-16.5c15.95,-10.725 27.225,-26.125 33.55,-45.65l-44.275,0c-4.4,9.075 -10.45,15.95 -18.425,20.625c-7.975,4.675 -17.325,7.15 -27.775,7.15c-11.275,0 -21.175,-2.75 -29.7,-7.975c-8.8,-5.225 -15.675,-12.65 -20.35,-22.275c-4.95,-9.625 -7.425,-20.625 -7.425,-33.275c0,-12.925 2.475,-23.925 7.425,-33.55c4.675,-9.625 11.55,-17.05 20.35,-22.275c8.525,-5.225 18.425,-7.7 29.7,-7.7c10.45,0 19.8,2.2 27.775,6.875c7.975,4.675 14.025,11.55 18.425,20.625l44.275,0c-6.325,-19.525 -17.6,-34.65 -33.825,-45.65c-16.225,-11 -34.925,-16.5 -56.375,-16.5c-18.425,0 -34.925,4.125 -49.5,12.375c-14.85,8.525 -26.4,20.075 -34.925,34.925c-8.525,15.125 -12.925,31.9 -12.925,50.875Z" style="fill:#abd037;fill-rule:nonzero;"/><path d="M1248.763,720.346l-40.975,87.725l-41.25,-87.725l-43.45,0l65.175,125.125l0,66.825l38.5,0l0,-66.825l64.9,-125.125l-42.9,0Z" style="fill:#abd037;fill-rule:nonzero;"/><path d="M1453.908,813.846c9.9,-3.025 17.875,-8.525 23.925,-15.95c5.775,-7.425 8.8,-16.775 8.8,-28.05c0,-9.625 -2.475,-18.15 -7.15,-25.575c-4.95,-7.425 -12.1,-13.475 -21.45,-17.6c-9.625,-4.125 -20.9,-6.325 -33.825,-6.325l-79.2,0l0,191.95l82.775,0c12.925,0 24.2,-2.2 33.825,-6.6c9.625,-4.4 16.775,-10.45 22,-18.425c4.95,-7.7 7.425,-16.775 7.425,-26.95c0,-11.275 -3.575,-21.45 -10.45,-30.25c-6.875,-8.8 -15.95,-14.3 -26.675,-16.225Zm-70.4,-62.425l35.2,0c9.075,0 16.225,2.2 21.175,6.325c4.95,4.125 7.425,10.175 7.425,17.875c0,7.7 -2.475,13.475 -7.425,17.6c-4.95,4.125 -12.1,6.325 -21.175,6.325l-35.2,0l0,-48.125Zm38.775,129.525l-38.775,0l0,-51.7l37.95,0c9.35,0 16.775,2.2 22.275,6.875c5.5,4.675 8.25,11.275 8.25,19.525c0,7.975 -2.475,14.3 -7.7,18.7c-5.225,4.4 -12.65,6.6 -22,6.6Z" style="fill:#abd037;fill-rule:nonzero;"/><path d="M1664.279,751.421l0,-31.35l-111.375,0l0,192.225l111.375,0l0,-31.35l-72.875,0l0,-50.875l64.625,0l0,-30.525l-64.625,0l0,-48.125l72.875,0Z" style="fill:#abd037;fill-rule:nonzero;"/><path d="M1873.829,912.296l-45.925,-77.825c14.575,-3.85 25.3,-11 32.725,-21.175c7.425,-10.175 11,-21.45 11,-34.1c0,-11 -2.475,-20.9 -7.7,-29.975c-5.225,-8.8 -13.2,-15.95 -23.65,-21.175c-10.45,-5.225 -23.1,-7.7 -37.95,-7.7l-72.05,0l0,191.95l38.5,0l0,-74.8l18.15,0l42.35,74.8l44.55,0Zm-105.05,-160.05l32.175,0c10.45,0 18.15,2.475 23.375,7.15c5.225,4.95 7.7,11.825 7.7,20.625c0,9.075 -2.475,15.95 -7.7,20.9c-5.225,5.225 -12.925,7.7 -23.375,7.7l-32.175,0l0,-56.375Z" style="fill:#abd037;fill-rule:nonzero;"/></g></svg>